<?xml version="1.0" encoding="UTF-8"?>
<svg id="_图层_1" data-name="图层 1" xmlns="http://www.w3.org/2000/svg" width="1164.167mm" height="776.111mm" viewBox="0 0 3300 2200">
  <g id="Notes">
    <rect id="artboard" width="3300" height="2200" style="fill: #fff;"/>
    <line x1="263" y1="292" x2="3036" y2="292" style="fill: none; stroke: #000; stroke-width: .5px;"/>
    <text transform="translate(263 322)" style="font-family: Helvetica-Bold, Helvetica; font-size: 13px; font-weight: 700; isolation: isolate;"><tspan x="0" y="0" style="letter-spacing: -.018em;">W</tspan><tspan x="12.042" y="0">eight/Scale </tspan><tspan x="84.291" y="0" style="letter-spacing: -.055em;">V</tspan><tspan x="92.25" y="0">ariations</tspan></text>
    <text transform="translate(534.063 322)" style="font-family: Helvetica, Helvetica; font-size: 13px; isolation: isolate;"><tspan x="0" y="0">Ultralight</tspan></text>
    <text transform="translate(843.777 322)" style="font-family: Helvetica, Helvetica; font-size: 13px; isolation: isolate;"><tspan x="0" y="0">Thin</tspan></text>
    <text transform="translate(1139.035 322)" style="font-family: Helvetica, Helvetica; font-size: 13px; isolation: isolate;"><tspan x="0" y="0">Light</tspan></text>
    <text transform="translate(1427.077 322)" style="font-family: Helvetica, Helvetica; font-size: 13px; isolation: isolate;"><tspan x="0" y="0">Regular</tspan></text>
    <text transform="translate(1723.442 322)" style="font-family: Helvetica, Helvetica; font-size: 13px; isolation: isolate;"><tspan x="0" y="0">Medium</tspan></text>
    <text transform="translate(2016.172 322)" style="font-family: Helvetica, Helvetica; font-size: 13px; isolation: isolate;"><tspan x="0" y="0">Semibold</tspan></text>
    <text transform="translate(2326.97 322)" style="font-family: Helvetica, Helvetica; font-size: 13px; isolation: isolate;"><tspan x="0" y="0">Bold</tspan></text>
    <text transform="translate(2618.266 322)" style="font-family: Helvetica, Helvetica; font-size: 13px; isolation: isolate;"><tspan x="0" y="0">Heavy</tspan></text>
    <text transform="translate(2917.505 322)" style="font-family: Helvetica, Helvetica; font-size: 13px; isolation: isolate;"><tspan x="0" y="0">Black</tspan></text>
    <line x1="263" y1="1903" x2="3036" y2="1903" style="fill: none; stroke: #000; stroke-width: .5px;"/>
    <path d="M272.248,1933.83c4.355,0,7.891-3.525,7.891-7.881s-3.535-7.881-7.891-7.881-7.881,3.525-7.881,7.881,3.535,7.881,7.881,7.881ZM272.248,1932.346c-3.535,0-6.387-2.861-6.387-6.396s2.852-6.396,6.387-6.396,6.396,2.861,6.396,6.396-2.861,6.396-6.396,6.396ZM272.971,1928.791v-5.693c0-.449-.293-.752-.742-.752-.43,0-.723.303-.723.752v5.693c0,.439.293.742.723.742.449,0,.742-.303.742-.742ZM269.406,1926.672h5.684c.439,0,.742-.293.742-.723,0-.439-.303-.742-.742-.742h-5.684c-.449,0-.752.303-.752.742,0,.43.303.723.752.723Z"/>
    <path d="M293.215,1935.91c5.498,0,9.961-4.463,9.961-9.961s-4.463-9.961-9.961-9.961-9.961,4.463-9.961,9.961,4.463,9.961,9.961,9.961ZM293.215,1934.25c-4.59,0-8.301-3.711-8.301-8.301s3.711-8.301,8.301-8.301,8.301,3.711,8.301,8.301-3.711,8.301-8.301,8.301ZM294.026,1929.631v-7.383c0-.498-.342-.84-.83-.84-.479,0-.811.342-.811.84v7.383c0,.488.332.83.811.83.488,0,.83-.332.83-.83ZM289.514,1926.75h7.393c.488,0,.83-.322.83-.801,0-.488-.342-.83-.83-.83h-7.393c-.498,0-.83.342-.83.83,0,.479.332.801.83.801Z"/>
    <path d="M319.895,1938.664c7.021,0,12.725-5.693,12.725-12.715s-5.703-12.725-12.725-12.725-12.715,5.703-12.715,12.725,5.693,12.715,12.715,12.715ZM319.895,1936.848c-6.025,0-10.898-4.873-10.898-10.898s4.873-10.898,10.898-10.898,10.898,4.873,10.898,10.898-4.873,10.898-10.898,10.898ZM320.783,1930.783v-9.697c0-.547-.371-.928-.908-.928-.518,0-.889.381-.889.928v9.697c0,.537.371.918.889.918.537,0,.908-.371.908-.918ZM315.041,1926.828h9.697c.537,0,.918-.361.918-.879,0-.547-.371-.918-.918-.918h-9.697c-.547,0-.918.371-.918.918,0,.518.371.879.918.879Z"/>
    <text transform="translate(263 1953)" style="font-family: Helvetica-Bold, Helvetica; font-size: 13px; font-weight: 700; isolation: isolate;"><tspan x="0" y="0">Design </tspan><tspan x="46.954" y="0" style="letter-spacing: -.055em;">V</tspan><tspan x="54.914" y="0">ariations</tspan></text>
    <text transform="translate(263 1971)" style="font-family: Helvetica, Helvetica; font-size: 13px; isolation: isolate;"><tspan x="0" y="0">Symbols are supported in up to nine weights and three scales.</tspan></text>
    <text transform="translate(263 1989)" style="font-family: Helvetica, Helvetica; font-size: 13px; isolation: isolate;"><tspan x="0" y="0">For optimal layout with text and other symbols, vertically align</tspan></text>
    <text transform="translate(263 2007)" style="font-family: Helvetica, Helvetica; font-size: 13px; isolation: isolate;"><tspan x="0" y="0">symbols with the adjacent text.</tspan></text>
    <line x1="776" y1="1919" x2="776" y2="1933" style="fill: none; stroke: #00aeef; stroke-width: .5px;"/>
    <path d="M779.311,1933.156c.518,0,.771-.195.957-.742l4.111-11.504h.049l4.121,11.504c.186.547.439.742.947.742.518,0,.85-.313.85-.801,0-.166-.029-.322-.107-.527l-4.58-12.197c-.225-.596-.625-.898-1.25-.898-.605,0-1.016.293-1.23.889l-4.58,12.217c-.078.205-.107.361-.107.527,0,.488.313.791.82.791ZM781.352,1928.967h6.133c.4,0,.732-.332.732-.732,0-.41-.332-.732-.732-.732h-6.133c-.4,0-.732.322-.732.732,0,.4.332.732.732.732Z"/>
    <line x1="792.836" y1="1919" x2="792.836" y2="1933" style="fill: none; stroke: #00aeef; stroke-width: .5px;"/>
    <text transform="translate(776 1953)" style="font-family: Helvetica-Bold, Helvetica; font-size: 13px; font-weight: 700; isolation: isolate;"><tspan x="0" y="0">Margins</tspan></text>
    <text transform="translate(776 1971)" style="font-family: Helvetica, Helvetica; font-size: 13px; isolation: isolate;"><tspan x="0" y="0">Leading and trailing margins on the left and right side of each symbol</tspan></text>
    <text transform="translate(776 1989)" style="font-family: Helvetica, Helvetica; font-size: 13px; isolation: isolate;"><tspan x="0" y="0">can be adjusted by modifying the x-location of the margin guidelines.</tspan></text>
    <text transform="translate(776 2007)" style="font-family: Helvetica, Helvetica; font-size: 13px; isolation: isolate;"><tspan x="0" y="0">Modifications are automatically applied proportionally to all</tspan></text>
    <text transform="translate(776 2025)" style="font-family: Helvetica, Helvetica; font-size: 13px; isolation: isolate;"><tspan x="0" y="0">scales and weights.</tspan></text>
    <path d="M1291.842,1935.627l1.572,1.572c.859.879,1.865.82,2.773-.205l12.139-13.643-.977-.977-12.051,13.535c-.361.391-.693.488-1.162.02l-1.035-1.025c-.459-.459-.361-.791.039-1.162l13.496-12.432-.977-.967-13.613,12.52c-.996.918-1.064,1.895-.205,2.764h0ZM1300.816,1916.135c-.41.4-.449.977-.215,1.357.225.361.693.605,1.318.449,1.172-.332,2.52-.479,3.779.186l-.537,1.426c-.322.801-.146,1.377.342,1.885l2.051,2.061c.469.479.908.488,1.416.391l.889-.146.518.508-.039.449c-.02.459.107.859.557,1.299l.674.664c.459.459,1.104.498,1.563.039l2.598-2.607c.459-.469.43-1.074-.039-1.533l-.684-.684c-.439-.439-.811-.605-1.27-.576l-.469.049-.488-.488.205-.938c.127-.547-.049-.996-.576-1.523l-2.256-2.236c-2.588-2.568-7.119-2.207-9.336-.029ZM1302.232,1916.545c1.758-1.279,5.195-1.133,6.738.391l2.461,2.441c.205.205.244.361.186.664l-.293,1.328,1.348,1.338.879-.049c.225-.01.303.01.469.176l.508.498-2.168,2.168-.498-.498c-.166-.176-.195-.244-.186-.479l.059-.869-1.338-1.348-1.367.234c-.283.059-.41.039-.635-.176l-1.787-1.777c-.215-.205-.234-.342-.098-.674l.918-2.295c-1.221-1.27-3.408-1.504-5.117-.918-.137.049-.186-.078-.078-.156h0Z"/>
    <text transform="translate(1289 1953)" style="font-family: Helvetica-Bold, Helvetica; font-size: 13px; font-weight: 700; isolation: isolate;"><tspan x="0" y="0">Exporting</tspan></text>
    <text transform="translate(1289 1971)" style="font-family: Helvetica, Helvetica; font-size: 13px; isolation: isolate;"><tspan x="0" y="0">Symbols should be outlined when exporting to ensure the</tspan></text>
    <text transform="translate(1289 1989)" style="font-family: Helvetica, Helvetica; font-size: 13px; isolation: isolate;"><tspan x="0" y="0">design is preserved when submitting to Xcode.</tspan></text>
    <text id="template-version" transform="translate(2952.414 1933)" style="font-family: Helvetica, Helvetica; font-size: 13px; isolation: isolate;"><tspan x="0" y="0" style="letter-spacing: -.111em;">T</tspan><tspan x="6.5" y="0">emplate </tspan><tspan x="56.361" y="0" style="letter-spacing: -.074em;">v</tspan><tspan x="61.902" y="0">.7.0</tspan></text>
    <text transform="translate(2865.457 1951)" style="font-family: Helvetica, Helvetica; font-size: 13px; isolation: isolate;"><tspan x="0" y="0">Requires Xcode 26 or greater</tspan></text>
    <text id="descriptive-name" transform="translate(2837.991 1969)" style="font-family: Helvetica, Helvetica; font-size: 13px; isolation: isolate;"><tspan x="0" y="0">Generated from earbuds.in.ea</tspan><tspan x="173.437" y="0" style="letter-spacing: -.055em;">r</tspan><tspan x="177.055" y="0">.left</tspan></text>
    <text transform="translate(2901.569 1987)" style="font-family: Helvetica, Helvetica; font-size: 13px; isolation: isolate;"><tspan x="0" y="0" style="letter-spacing: -.055em;">T</tspan><tspan x="7.23" y="0">ypeset at 100.0 points</tspan></text>
    <text transform="translate(263 726)" style="font-family: Helvetica, Helvetica; font-size: 13px; isolation: isolate;"><tspan x="0" y="0">Small</tspan></text>
    <text transform="translate(263 1156)" style="font-family: Helvetica, Helvetica; font-size: 13px; isolation: isolate;"><tspan x="0" y="0">Medium</tspan></text>
    <text transform="translate(263 1586)" style="font-family: Helvetica, Helvetica; font-size: 13px; isolation: isolate;"><tspan x="0" y="0">Large</tspan></text>
  </g>
  <g id="Guides">
    <g id="H-reference">
      <path d="M336.504,693.824h2.644l25.69-67.132h.702v-3.327h-1.908l-27.129,70.459ZM347.199,669.344h35.293l-.75-2.249h-33.793l-.75,2.249ZM390.63,693.824h2.644l-27.125-70.459h-1.206v3.327l25.687,67.132Z" style="fill: #27aae1;"/>
    </g>
    <line id="Baseline-S" x1="259.51" y1="693.824" x2="3032.51" y2="693.824" style="fill: none; stroke: #27aae1; stroke-width: .5px;"/>
    <line id="Capline-S" x1="259.51" y1="623.365" x2="3032.51" y2="623.365" style="fill: none; stroke: #27aae1; stroke-width: .5px;"/>
    <g id="H-reference-2" data-name="H-reference">
      <path d="M336.504,1123.824h2.644l25.69-67.132h.702v-3.327h-1.908l-27.129,70.459ZM347.199,1099.344h35.293l-.75-2.249h-33.793l-.75,2.249ZM390.63,1123.824h2.644l-27.125-70.459h-1.206v3.327l25.687,67.132Z" style="fill: #27aae1;"/>
    </g>
    <line id="Baseline-M" x1="259.51" y1="1123.824" x2="3032.51" y2="1123.824" style="fill: none; stroke: #27aae1; stroke-width: .5px;"/>
    <line id="Capline-M" x1="259.51" y1="1053.364" x2="3032.51" y2="1053.364" style="fill: none; stroke: #27aae1; stroke-width: .5px;"/>
    <g id="H-reference-3" data-name="H-reference">
      <path d="M336.504,1553.824h2.644l25.69-67.132h.702v-3.327h-1.908l-27.129,70.459ZM347.199,1529.344h35.293l-.75-2.249h-33.793l-.75,2.249ZM390.63,1553.824h2.644l-27.125-70.459h-1.206v3.327l25.687,67.132Z" style="fill: #27aae1;"/>
    </g>
    <line id="Baseline-L" x1="259.51" y1="1553.824" x2="3032.51" y2="1553.824" style="fill: none; stroke: #27aae1; stroke-width: .5px;"/>
    <line id="Capline-L" x1="259.51" y1="1483.364" x2="3032.51" y2="1483.364" style="fill: none; stroke: #27aae1; stroke-width: .5px;"/>
    <line id="right-margin-Black-S" x1="2968.92" y1="598.609" x2="2968.92" y2="717.945" style="fill: none; stroke: #00aeef; stroke-width: .5px;"/>
    <line id="left-margin-Black-S" x1="2890.9" y1="598.609" x2="2890.9" y2="717.945" style="fill: none; stroke: #00aeef; stroke-width: .5px;"/>
    <line id="right-margin-Regular-S" x1="1481.34" y1="598.609" x2="1481.34" y2="717.945" style="fill: none; stroke: #00aeef; stroke-width: .5px;"/>
    <line id="left-margin-Regular-S" x1="1411.37" y1="598.609" x2="1411.37" y2="717.945" style="fill: none; stroke: #00aeef; stroke-width: .5px;"/>
    <line id="right-margin-Ultralight-S" x1="588.255" y1="598.609" x2="588.255" y2="717.945" style="fill: none; stroke: #00aeef; stroke-width: .5px;"/>
    <line id="left-margin-Ultralight-S" x1="524.187" y1="598.609" x2="524.187" y2="717.945" style="fill: none; stroke: #00aeef; stroke-width: .5px;"/>
  </g>
  <g id="Symbols">
    <g id="Ultralight-S">
      <path d="M571.955,668.992c9.235,0,18.728-7.326,18.728-18.522,0-7.481-5.262-14.807-14.549-14.807-10.886,0-19.296,9.441-19.296,18.367,0,10.009,7.068,14.962,15.117,14.962ZM574.483,661.15c-1.445-1.238-.619-3.715,2.322-7.481,3.044-3.715,5.469-4.953,7.017-3.611,1.393,1.238.619,3.766-2.322,7.429-3.096,3.663-5.52,4.953-7.017,3.663ZM544.095,612.962c8.822-.103,18.677,4.231,25.28,13.414.773.966,1.876,2.637,2.918,4.647-11.739,1.93-20.408,12.482-20.408,23.006,0,2.938.497,5.629,1.432,8.023-6.064-.233-11.077-2.067-14.691-4.102-8.513-4.901-15.22-12.847-15.22-24.249,0-13.156,9.287-20.637,20.689-20.74ZM527.543,655.668c2.572,2.609,5.52,4.796,8.611,6.575l.021.012.021.012c3.351,1.887,7.71,3.61,12.875,4.363.576,6.667,1.173,13.602,1.905,22.249.672,7.932-6.422,14.637-14.373,14.243-7.61-.378-13.927-7.125-13.023-14.691,1.571-13.156,2.708-22.433,3.963-32.763Z" style="fill: rgba(255, 255, 255, .85); stroke: #000; stroke-miterlimit: 10; stroke-width: .5px;"/>
    </g>
    <g id="Regular-S">
      <path d="M1462.668,669.539c9.697,0,19.665-7.692,19.665-19.448,0-7.855-5.526-15.547-15.277-15.547-11.43,0-20.26,9.914-20.26,19.285,0,10.509,7.422,15.71,15.873,15.71ZM1465.322,661.305c-1.517-1.3-.65-3.9,2.438-7.855,3.196-3.9,5.742-5.201,7.367-3.792,1.463,1.3.65,3.955-2.438,7.801-3.25,3.846-5.796,5.201-7.367,3.846ZM1433.414,610.708c9.263-.108,19.61,4.442,26.544,14.085.811,1.014,1.969,2.769,3.064,4.88-12.326,2.027-21.429,13.106-21.429,24.157,0,3.085.522,5.91,1.503,8.424-6.367-.245-11.631-2.17-15.426-4.307-8.938-5.146-15.981-13.489-15.981-25.461,0-13.814,9.751-21.669,21.723-21.777ZM1416.036,655.549c2.701,2.74,5.796,5.036,9.042,6.904l.022.012.022.012c3.518,1.981,8.096,3.79,13.519,4.581.605,7,1.231,14.282,2.001,23.362.706,8.329-6.743,15.369-15.092,14.955-7.991-.397-14.623-7.481-13.675-15.426,1.649-13.814,2.844-23.554,4.162-34.401Z" style="fill: rgba(255, 255, 255, .85); stroke: #000; stroke-miterlimit: 10; stroke-width: .5px;"/>
    </g>
    <g id="Black-S">
      <path d="M2949.218,670.633c10.62,0,21.537-8.425,21.537-21.3,0-8.603-6.052-17.028-16.732-17.028-12.519,0-22.19,10.858-22.19,21.122,0,11.51,8.128,17.206,17.384,17.206ZM2952.125,661.615c-1.661-1.424-.712-4.272,2.67-8.603,3.501-4.272,6.289-5.696,8.069-4.153,1.602,1.424.712,4.331-2.67,8.544-3.56,4.213-6.348,5.696-8.069,4.213ZM2917.179,606.199c10.146-.119,21.478,4.865,29.073,15.426.889,1.111,2.157,3.033,3.356,5.344-13.5,2.22-23.469,14.354-23.469,26.457,0,3.379.572,6.473,1.647,9.226-6.973-.268-12.739-2.377-16.895-4.717-9.79-5.637-17.503-14.774-17.503-27.886,0-15.13,10.68-23.733,23.792-23.851ZM2898.145,655.311c2.958,3.001,6.348,5.515,9.903,7.562l.024.014.024.013c3.854,2.17,8.867,4.151,14.807,5.018.662,7.667,1.349,15.642,2.191,25.587.773,9.122-7.386,16.833-16.529,16.379-8.752-.435-16.016-8.194-14.977-16.895,1.806-15.13,3.115-25.798,4.558-37.677Z" style="fill: rgba(255, 255, 255, .85); stroke: #000; stroke-miterlimit: 10; stroke-width: .5px;"/>
    </g>
  </g>
</svg>