<svg width="377" height="494" viewBox="0 0 377 494" fill="none" xmlns="http://www.w3.org/2000/svg">
<g clip-path="url(#clip0_5834_6266)">
<path d="M97.7325 131.814C104.887 132.009 110.926 136.453 113.495 142.66L113.498 142.662C115.021 145.862 115.209 149.434 115.02 158.295L114.98 159.746L114.981 159.747L113.202 225.025L113.203 225.026L113.109 228.478C112.816 237.336 112.434 240.892 110.739 244.005L110.736 244.007C107.833 250.065 101.561 254.173 94.4063 253.978C87.2515 253.783 81.2125 249.338 78.6436 243.131C77.1204 239.93 76.933 236.359 77.1221 227.499L77.2169 224.047L78.9395 160.766L79.0333 157.314C79.3266 148.456 79.708 144.901 81.4034 141.788C84.3063 135.729 90.5776 131.62 97.7325 131.814Z" fill="#3D3D3D"/>
</g>
<defs>
<clipPath id="clip0_5834_6266">
<rect width="376.75" height="493.254" fill="white"/>
</clipPath>
</defs>
</svg>
