<svg width="377" height="494" viewBox="0 0 377 494" fill="none" xmlns="http://www.w3.org/2000/svg">
<g clip-path="url(#clip0_5869_6214)">
<path d="M312.01 188.719C317.547 188.882 322.609 190.873 326.77 194.333L327.169 194.672L327.236 194.73L327.301 194.788C336.419 202.893 336.359 214.19 333.619 223.002C330.967 231.535 325.175 240.665 317.667 250.017L317.557 250.154L317.444 250.288C309.554 259.624 301.468 267.265 293.348 271.525C289.189 273.706 284.279 275.396 278.919 275.361C273.23 275.323 267.931 273.332 263.609 269.606C254.195 261.512 254.249 250.134 257.057 241.251C259.735 232.778 265.561 223.618 272.965 214.136L273.067 214.006L273.171 213.878C280.962 204.371 289.049 196.611 297.323 192.362C301.581 190.174 306.579 188.559 312.01 188.719Z" fill="#007AFF"/>
</g>
<defs>
<clipPath id="clip0_5869_6214">
<rect width="376.75" height="493.254" fill="white"/>
</clipPath>
</defs>
</svg>
