<svg width="1024" height="1024" viewBox="0 0 1024 1024" fill="none" xmlns="http://www.w3.org/2000/svg">
<path d="M199.519 223.836C291.243 207.749 337.105 199.705 373.113 218.042C383.216 223.187 392.547 229.726 400.83 237.468C430.351 265.061 438.437 310.915 454.607 402.624C457.425 418.605 458.834 426.597 460.358 428.67C463.632 433.12 466.201 434.086 471.595 432.893C474.108 432.337 481.922 426.054 497.549 413.489C522.717 393.252 554.461 383.635 577.955 379.492C614.449 373.058 648.642 377.005 680.531 391.337C712.144 405.717 738.99 428.637 761.071 460.092C782.874 491.596 797.725 529.742 805.623 574.531C813.861 621.255 811.773 666.807 798.189 704.551C784.328 742.343 761.222 773.784 728.872 798.873C696.473 823.685 656.912 840.212 610.188 848.45C562.911 856.787 519.944 854.812 481.289 842.529C442.309 830.017 409.982 808.351 384.307 777.529C358.356 746.757 342.75 704.324 334.511 657.6L287.468 390.803C283.375 367.591 281.328 355.985 272.846 350.045C264.363 344.106 252.757 346.152 229.545 350.245L225.007 351.045C209.222 353.829 201.33 355.22 195.562 351.181C189.794 347.142 188.402 339.25 185.619 323.466L174.377 259.707C172.101 246.801 170.963 240.348 173.542 235.282C174.265 233.861 175.185 232.548 176.274 231.383C180.156 227.231 186.611 226.099 199.519 223.836ZM553.385 524.972C537.298 527.809 523.95 534.014 513.341 543.587C502.412 552.969 494.648 564.898 490.051 579.375C485.455 593.853 484.771 610.25 488 628.565C491.485 648.326 498.671 667.186 507.707 679.507C516.701 691.588 529.144 699.707 541.705 704.449C553.99 709.241 570.672 709.778 585.094 707.235C598.962 704.789 611.126 699.166 621.585 690.364C631.767 681.612 639.017 670.02 643.337 655.592C647.336 640.972 647.084 620.889 643.6 601.128C640.37 582.813 634.675 567.541 626.514 555.313C618.352 543.086 608.086 534.336 595.717 529.062C583.028 523.597 568.917 522.233 553.385 524.972Z" fill="#D9D9D9"/>
</svg>
