<svg width="1024" height="1024" viewBox="0 0 1024 1024" fill="none" xmlns="http://www.w3.org/2000/svg">
<path d="M507.711 203.937C504.928 188.148 503.536 180.254 507.576 174.485C511.617 168.716 519.512 167.327 535.301 164.548L760.589 124.893C776.37 122.116 784.26 120.727 790.026 124.766C795.793 128.805 797.184 136.695 799.966 152.475L805.325 182.866L810.68 213.237C813.464 229.025 814.856 236.92 810.816 242.688C806.775 248.457 798.88 249.847 783.091 252.626L557.803 292.28C542.022 295.058 534.132 296.447 528.365 292.408C522.599 288.369 521.208 280.479 518.425 264.699L507.711 203.937Z" fill="#8B8B8B"/>
<path d="M654.546 360.073C638.758 362.857 630.863 364.249 625.095 360.208C619.326 356.167 617.936 348.273 615.157 332.483L575.503 107.195C572.725 91.4146 571.336 83.5242 575.375 77.7579C579.414 71.9916 587.304 70.6004 603.084 67.818L633.475 62.4592L663.846 57.104C679.635 54.32 687.529 52.928 693.298 56.9687C699.067 61.0093 700.456 68.904 703.235 84.6935L742.89 309.981C745.667 325.762 747.056 333.652 743.017 339.419C738.978 345.185 731.088 346.576 715.308 349.359L654.546 360.073Z" fill="#8B8B8B"/>
</svg>
