<svg width="1024" height="1024" viewBox="0 0 1024 1024" fill="none" xmlns="http://www.w3.org/2000/svg">
<path d="M199.519 223.835C291.242 207.748 337.104 199.705 373.113 218.041C383.216 223.186 392.547 229.726 400.83 237.468C430.351 265.061 438.437 310.916 454.608 402.625L464.321 457.712C485.061 405.57 541.46 385.928 577.955 379.493C614.449 373.058 648.642 377.005 680.531 391.337C712.144 405.718 738.99 428.636 761.071 460.091C782.874 491.595 797.725 529.742 805.623 574.531C813.861 621.255 811.774 666.807 798.189 704.551C784.328 742.344 761.222 773.785 728.872 798.873C696.473 823.686 656.912 840.211 610.188 848.45C562.911 856.786 519.944 854.813 481.289 842.529C442.309 830.018 409.982 808.351 384.307 777.53C358.356 746.757 342.75 704.325 334.511 657.601L287.468 390.803C283.375 367.592 281.328 355.985 272.846 350.046C264.363 344.106 252.757 346.153 229.545 350.246L225.007 351.046C209.223 353.829 201.33 355.22 195.562 351.181C189.794 347.142 188.402 339.25 185.619 323.466L174.377 259.707C172.101 246.801 170.963 240.347 173.541 235.281C174.265 233.86 175.185 232.548 176.274 231.383C180.156 227.231 186.61 226.099 199.519 223.835ZM553.385 524.972C537.298 527.809 523.95 534.014 513.341 543.588C502.412 552.969 494.648 564.899 490.051 579.376C485.455 593.853 484.771 610.249 488 628.564C491.485 648.325 498.671 667.185 507.707 679.507C516.701 691.588 529.144 699.706 541.705 704.449C553.989 709.24 570.672 709.778 585.094 707.235C598.962 704.79 611.126 699.166 621.585 690.364C631.767 681.611 639.017 670.02 643.337 655.592C647.336 640.971 647.084 620.889 643.6 601.128C640.37 582.813 634.675 567.541 626.514 555.314C618.352 543.086 608.086 534.336 595.717 529.063C583.028 523.597 568.917 522.234 553.385 524.972Z" fill="#D9D9D9"/>
</svg>
