<svg width="1024" height="1024" viewBox="0 0 1024 1024" fill="none" xmlns="http://www.w3.org/2000/svg">
<path d="M485.815 207.88C483.032 192.096 481.64 184.204 485.679 178.435C489.718 172.667 497.61 171.276 513.395 168.492L760.581 124.907C776.366 122.124 784.258 120.732 790.026 124.771C795.794 128.81 797.186 136.702 799.969 152.486L805.326 182.867L810.683 213.248C813.466 229.033 814.858 236.925 810.819 242.693C806.78 248.461 798.888 249.853 783.103 252.636L535.917 296.221C520.132 299.005 512.24 300.396 506.472 296.357C500.704 292.318 499.312 284.426 496.529 268.642L485.815 207.88Z" fill="#8B8B8B"/>
</svg>
