<?xml version="1.0" encoding="UTF-8"?>
<!--Generator: Apple Native CoreSVG 360-->
<!DOCTYPE svg
PUBLIC "-//W3C//DTD SVG 1.1//EN"
       "http://www.w3.org/Graphics/SVG/1.1/DTD/svg11.dtd">
<svg version="1.1" xmlns="http://www.w3.org/2000/svg" xmlns:xlink="http://www.w3.org/1999/xlink" viewBox="0 0 3300 2200">
 <!--glyph: "", point size: 100.0, font version: "21.1d1e1", template writer version: "138.0.0"-->
 <style>.defaults {-sfsymbols-variable-value-mode:color;-sfsymbols-draw-reverses-motion-groups:true}

.monochrome-0 {-sfsymbols-motion-group:6;-sfsymbols-layer-tags:-2858c9aa916fd1fa}
.monochrome-1 {-sfsymbols-motion-group:5;-sfsymbols-layer-tags:-2858c9aa916fd1fa}
.monochrome-2 {-sfsymbols-motion-group:4;-sfsymbols-layer-tags:-2858c9aa916fd1fa}
.monochrome-3 {-sfsymbols-motion-group:4;-sfsymbols-layer-tags:-2858c9aa916fd1fa}
.monochrome-4 {-sfsymbols-motion-group:3;-sfsymbols-layer-tags:-2858c9aa916fd1fa}
.monochrome-5 {-sfsymbols-motion-group:3;-sfsymbols-layer-tags:-2858c9aa916fd1fa}
.monochrome-6 {-sfsymbols-motion-group:2;-sfsymbols-layer-tags:-2858c9aa916fd1fa}
.monochrome-7 {-sfsymbols-motion-group:2;-sfsymbols-layer-tags:-2858c9aa916fd1fa}
.monochrome-8 {-sfsymbols-motion-group:1;-sfsymbols-layer-tags:-2858c9aa916fd1fa}
.monochrome-9 {-sfsymbols-motion-group:1;-sfsymbols-layer-tags:-2858c9aa916fd1fa}
.monochrome-10 {-sfsymbols-motion-group:0;-sfsymbols-always-pulses:true;-sfsymbols-layer-tags:-2858c9aa916fd1fa}
.monochrome-11 {-sfsymbols-motion-group:0;-sfsymbols-layer-tags:-2858c9aa916fd1fa}

.multicolor-0:tintColor {-sfsymbols-motion-group:6;-sfsymbols-layer-tags:-2858c9aa916fd1fa}
.multicolor-1:tintColor {-sfsymbols-motion-group:5;-sfsymbols-layer-tags:-2858c9aa916fd1fa}
.multicolor-2:tintColor {-sfsymbols-motion-group:4;-sfsymbols-layer-tags:-2858c9aa916fd1fa}
.multicolor-3:tintColor {-sfsymbols-motion-group:4;-sfsymbols-layer-tags:-2858c9aa916fd1fa}
.multicolor-4:tintColor {-sfsymbols-motion-group:3;-sfsymbols-layer-tags:-2858c9aa916fd1fa}
.multicolor-5:tintColor {-sfsymbols-motion-group:3;-sfsymbols-layer-tags:-2858c9aa916fd1fa}
.multicolor-6:tintColor {-sfsymbols-motion-group:2;-sfsymbols-layer-tags:-2858c9aa916fd1fa}
.multicolor-7:tintColor {-sfsymbols-motion-group:2;-sfsymbols-layer-tags:-2858c9aa916fd1fa}
.multicolor-8:tintColor {-sfsymbols-motion-group:1;-sfsymbols-layer-tags:-2858c9aa916fd1fa}
.multicolor-9:tintColor {-sfsymbols-motion-group:1;-sfsymbols-layer-tags:-2858c9aa916fd1fa}
.multicolor-10:tintColor {-sfsymbols-motion-group:0;-sfsymbols-always-pulses:true;-sfsymbols-layer-tags:-2858c9aa916fd1fa}
.multicolor-11:tintColor {-sfsymbols-motion-group:0;-sfsymbols-layer-tags:-2858c9aa916fd1fa}

.hierarchical-0:primary {-sfsymbols-motion-group:6;-sfsymbols-layer-tags:-2858c9aa916fd1fa}
.hierarchical-1:secondary {-sfsymbols-motion-group:5;-sfsymbols-layer-tags:-2858c9aa916fd1fa}
.hierarchical-2:secondary {-sfsymbols-motion-group:4;-sfsymbols-layer-tags:-2858c9aa916fd1fa}
.hierarchical-3:secondary {-sfsymbols-motion-group:4;-sfsymbols-layer-tags:-2858c9aa916fd1fa}
.hierarchical-4:secondary {-sfsymbols-motion-group:3;-sfsymbols-layer-tags:-2858c9aa916fd1fa}
.hierarchical-5:secondary {-sfsymbols-motion-group:3;-sfsymbols-layer-tags:-2858c9aa916fd1fa}
.hierarchical-6:secondary {-sfsymbols-motion-group:2;-sfsymbols-layer-tags:-2858c9aa916fd1fa}
.hierarchical-7:secondary {-sfsymbols-motion-group:2;-sfsymbols-layer-tags:-2858c9aa916fd1fa}
.hierarchical-8:secondary {-sfsymbols-motion-group:1;-sfsymbols-layer-tags:-2858c9aa916fd1fa}
.hierarchical-9:secondary {-sfsymbols-motion-group:1;-sfsymbols-layer-tags:-2858c9aa916fd1fa}
.hierarchical-10:secondary {-sfsymbols-motion-group:0;-sfsymbols-always-pulses:true;-sfsymbols-layer-tags:-2858c9aa916fd1fa}
.hierarchical-11:secondary {-sfsymbols-motion-group:0;-sfsymbols-layer-tags:-2858c9aa916fd1fa}

.SFSymbolsPreviewWireframe {fill:none;opacity:1.0;stroke:black;stroke-width:0.5}
</style>
 <g id="Notes">
  <rect height="2200" id="artboard" style="fill:white;opacity:1" width="3300" x="0" y="0"/>
  <line style="fill:none;stroke:black;opacity:1;stroke-width:0.5;" x1="263" x2="3036" y1="292" y2="292"/>
  <text style="stroke:none;fill:black;font-family:sans-serif;font-size:13;font-weight:bold;" transform="matrix(1 0 0 1 263 322)">Weight/Scale Variations</text>
  <text style="stroke:none;fill:black;font-family:sans-serif;font-size:13;text-anchor:middle;" transform="matrix(1 0 0 1 559.711 322)">Ultralight</text>
  <text style="stroke:none;fill:black;font-family:sans-serif;font-size:13;text-anchor:middle;" transform="matrix(1 0 0 1 856.422 322)">Thin</text>
  <text style="stroke:none;fill:black;font-family:sans-serif;font-size:13;text-anchor:middle;" transform="matrix(1 0 0 1 1153.13 322)">Light</text>
  <text style="stroke:none;fill:black;font-family:sans-serif;font-size:13;text-anchor:middle;" transform="matrix(1 0 0 1 1449.84 322)">Regular</text>
  <text style="stroke:none;fill:black;font-family:sans-serif;font-size:13;text-anchor:middle;" transform="matrix(1 0 0 1 1746.56 322)">Medium</text>
  <text style="stroke:none;fill:black;font-family:sans-serif;font-size:13;text-anchor:middle;" transform="matrix(1 0 0 1 2043.27 322)">Semibold</text>
  <text style="stroke:none;fill:black;font-family:sans-serif;font-size:13;text-anchor:middle;" transform="matrix(1 0 0 1 2339.98 322)">Bold</text>
  <text style="stroke:none;fill:black;font-family:sans-serif;font-size:13;text-anchor:middle;" transform="matrix(1 0 0 1 2636.69 322)">Heavy</text>
  <text style="stroke:none;fill:black;font-family:sans-serif;font-size:13;text-anchor:middle;" transform="matrix(1 0 0 1 2933.4 322)">Black</text>
  <line style="fill:none;stroke:black;opacity:1;stroke-width:0.5;" x1="263" x2="3036" y1="1903" y2="1903"/>
  <g transform="matrix(0.2 0 0 0.2 263 1933)">
   <path d="m46.2402 4.15039c21.7773 0 39.4531-17.627 39.4531-39.4043s-17.6758-39.4043-39.4531-39.4043c-21.7285 0-39.4043 17.627-39.4043 39.4043s17.6758 39.4043 39.4043 39.4043Zm0-7.42188c-17.6758 0-31.9336-14.3066-31.9336-31.9824s14.2578-31.9824 31.9336-31.9824 31.9824 14.3066 31.9824 31.9824-14.3066 31.9824-31.9824 31.9824Zm3.61328-17.7734v-28.4668c0-2.24609-1.46484-3.75977-3.71094-3.75977-2.14844 0-3.61328 1.51367-3.61328 3.75977v28.4668c0 2.19727 1.46484 3.71094 3.61328 3.71094 2.24609 0 3.71094-1.51367 3.71094-3.71094Zm-17.8223-10.5957h28.418c2.19727 0 3.71094-1.46484 3.71094-3.61328 0-2.19727-1.51367-3.71094-3.71094-3.71094h-28.418c-2.24609 0-3.75977 1.51367-3.75977 3.71094 0 2.14844 1.51367 3.61328 3.75977 3.61328Z"/>
  </g>
  <g transform="matrix(0.2 0 0 0.2 281.506 1933)">
   <path d="m58.5449 14.5508c27.4902 0 49.8047-22.3145 49.8047-49.8047s-22.3145-49.8047-49.8047-49.8047-49.8047 22.3145-49.8047 49.8047 22.3145 49.8047 49.8047 49.8047Zm0-8.30078c-22.9492 0-41.5039-18.5547-41.5039-41.5039s18.5547-41.5039 41.5039-41.5039 41.5039 18.5547 41.5039 41.5039-18.5547 41.5039-41.5039 41.5039Zm4.05273-23.0957v-36.9141c0-2.49023-1.70898-4.19922-4.15039-4.19922-2.39258 0-4.05273 1.70898-4.05273 4.19922v36.9141c0 2.44141 1.66016 4.15039 4.05273 4.15039 2.44141 0 4.15039-1.66016 4.15039-4.15039Zm-22.5586-14.4043h36.9629c2.44141 0 4.15039-1.61133 4.15039-4.00391 0-2.44141-1.70898-4.15039-4.15039-4.15039h-36.9629c-2.49023 0-4.15039 1.70898-4.15039 4.15039 0 2.39258 1.66016 4.00391 4.15039 4.00391Z"/>
  </g>
  <g transform="matrix(0.2 0 0 0.2 304.924 1933)">
   <path d="m74.8535 28.3203c35.1074 0 63.623-28.4668 63.623-63.5742s-28.5156-63.623-63.623-63.623-63.5742 28.5156-63.5742 63.623 28.4668 63.5742 63.5742 63.5742Zm0-9.08203c-30.127 0-54.4922-24.3652-54.4922-54.4922s24.3652-54.4922 54.4922-54.4922 54.4922 24.3652 54.4922 54.4922-24.3652 54.4922-54.4922 54.4922Zm4.44336-30.3223v-48.4863c0-2.73438-1.85547-4.63867-4.54102-4.63867-2.58789 0-4.44336 1.9043-4.44336 4.63867v48.4863c0 2.68555 1.85547 4.58984 4.44336 4.58984 2.68555 0 4.54102-1.85547 4.54102-4.58984Zm-28.7109-19.7754h48.4863c2.68555 0 4.58984-1.80664 4.58984-4.39453 0-2.73438-1.85547-4.58984-4.58984-4.58984h-48.4863c-2.73438 0-4.58984 1.85547-4.58984 4.58984 0 2.58789 1.85547 4.39453 4.58984 4.39453Z"/>
  </g>
  <text style="stroke:none;fill:black;font-family:sans-serif;font-size:13;font-weight:bold;" transform="matrix(1 0 0 1 263 1953)">Design Variations</text>
  <text style="stroke:none;fill:black;font-family:sans-serif;font-size:13;" transform="matrix(1 0 0 1 263 1971)">Symbols are supported in up to nine weights and three scales.</text>
  <text style="stroke:none;fill:black;font-family:sans-serif;font-size:13;" transform="matrix(1 0 0 1 263 1989)">For optimal layout with text and other symbols, vertically align</text>
  <text style="stroke:none;fill:black;font-family:sans-serif;font-size:13;" transform="matrix(1 0 0 1 263 2007)">symbols with the adjacent text.</text>
  <line style="fill:none;stroke:#00AEEF;stroke-width:0.5;opacity:1.0;" x1="776" x2="776" y1="1919" y2="1933"/>
  <g transform="matrix(0.2 0 0 0.2 776 1933)">
   <path d="m16.5527 0.78125c2.58789 0 3.85742-0.976562 4.78516-3.71094l20.5566-57.5195h0.244141l20.6055 57.5195c0.927734 2.73438 2.19727 3.71094 4.73633 3.71094 2.58789 0 4.24805-1.5625 4.24805-4.00391 0-0.830078-0.146484-1.61133-0.537109-2.63672l-22.9004-60.9863c-1.12305-2.97852-3.125-4.49219-6.25-4.49219-3.02734 0-5.07812 1.46484-6.15234 4.44336l-22.9004 61.084c-0.390625 1.02539-0.537109 1.80664-0.537109 2.63672 0 2.44141 1.5625 3.95508 4.10156 3.95508Zm10.2051-20.9473h30.6641c2.00195 0 3.66211-1.66016 3.66211-3.66211 0-2.05078-1.66016-3.66211-3.66211-3.66211h-30.6641c-2.00195 0-3.66211 1.61133-3.66211 3.66211 0 2.00195 1.66016 3.66211 3.66211 3.66211Z"/>
  </g>
  <line style="fill:none;stroke:#00AEEF;stroke-width:0.5;opacity:1.0;" x1="792.836" x2="792.836" y1="1919" y2="1933"/>
  <text style="stroke:none;fill:black;font-family:sans-serif;font-size:13;font-weight:bold;" transform="matrix(1 0 0 1 776 1953)">Margins</text>
  <text style="stroke:none;fill:black;font-family:sans-serif;font-size:13;" transform="matrix(1 0 0 1 776 1971)">Leading and trailing margins on the left and right side of each symbol</text>
  <text style="stroke:none;fill:black;font-family:sans-serif;font-size:13;" transform="matrix(1 0 0 1 776 1989)">can be adjusted by modifying the x-location of the margin guidelines.</text>
  <text style="stroke:none;fill:black;font-family:sans-serif;font-size:13;" transform="matrix(1 0 0 1 776 2007)">Modifications are automatically applied proportionally to all</text>
  <text style="stroke:none;fill:black;font-family:sans-serif;font-size:13;" transform="matrix(1 0 0 1 776 2025)">scales and weights.</text>
  <g transform="matrix(0.2 0 0 0.2 1289 1933)">
   <path d="m14.209 13.1348 7.86133 7.86133c4.29688 4.39453 9.32617 4.10156 13.8672-1.02539l60.6934-68.2129-4.88281-4.88281-60.2539 67.6758c-1.80664 1.95312-3.4668 2.44141-5.81055 0.0976562l-5.17578-5.12695c-2.29492-2.29492-1.80664-3.95508 0.195312-5.81055l67.4805-62.1582-4.88281-4.83398-68.0664 62.5977c-4.98047 4.58984-5.32227 9.47266-1.02539 13.8184Zm44.873-97.4609c-2.05078 2.00195-2.24609 4.88281-1.07422 6.78711 1.12305 1.80664 3.4668 3.02734 6.5918 2.24609 5.85938-1.66016 12.5977-2.39258 18.8965 0.927734l-2.68555 7.12891c-1.61133 4.00391-0.732422 6.88477 1.70898 9.42383l10.2539 10.3027c2.34375 2.39258 4.54102 2.44141 7.08008 1.95312l4.44336-0.732422 2.58789 2.53906-0.195312 2.24609c-0.0976562 2.29492 0.537109 4.29688 2.7832 6.49414l3.36914 3.32031c2.29492 2.29492 5.51758 2.49023 7.8125 0.195312l12.9883-13.0371c2.29492-2.34375 2.14844-5.37109-0.195312-7.66602l-3.41797-3.41797c-2.19727-2.19727-4.05273-3.02734-6.34766-2.88086l-2.34375 0.244141-2.44141-2.44141 1.02539-4.6875c0.634766-2.73438-0.244141-4.98047-2.88086-7.61719l-11.2793-11.1816c-12.9395-12.8418-35.5957-11.0352-46.6797-0.146484Zm7.08008 2.05078c8.78906-6.39648 25.9766-5.66406 33.6914 1.95312l12.3047 12.207c1.02539 1.02539 1.2207 1.80664 0.927734 3.32031l-1.46484 6.64062 6.73828 6.68945 4.39453-0.244141c1.12305-0.0488281 1.51367 0.0488281 2.34375 0.878906l2.53906 2.49023-10.8398 10.8398-2.49023-2.49023c-0.830078-0.878906-0.976562-1.2207-0.927734-2.39258l0.292969-4.3457-6.68945-6.73828-6.83594 1.17188c-1.41602 0.292969-2.05078 0.195312-3.17383-0.878906l-8.93555-8.88672c-1.07422-1.02539-1.17188-1.70898-0.488281-3.36914l4.58984-11.4746c-6.10352-6.34766-17.041-7.51953-25.5859-4.58984-0.683594 0.244141-0.927734-0.390625-0.390625-0.78125Z"/>
  </g>
  <text style="stroke:none;fill:black;font-family:sans-serif;font-size:13;font-weight:bold;" transform="matrix(1 0 0 1 1289 1953)">Exporting</text>
  <text style="stroke:none;fill:black;font-family:sans-serif;font-size:13;" transform="matrix(1 0 0 1 1289 1971)">Symbols should be outlined when exporting to ensure the</text>
  <text style="stroke:none;fill:black;font-family:sans-serif;font-size:13;" transform="matrix(1 0 0 1 1289 1989)">design is preserved when submitting to Xcode.</text>
  <text id="template-version" style="stroke:none;fill:black;font-family:sans-serif;font-size:13;text-anchor:end;" transform="matrix(1 0 0 1 3036 1933)">Template v.7.0</text>
  <text style="stroke:none;fill:black;font-family:sans-serif;font-size:13;text-anchor:end;" transform="matrix(1 0 0 1 3036 1951)">Requires Xcode 26 or greater</text>
  <text id="descriptive-name" style="stroke:none;fill:black;font-family:sans-serif;font-size:13;text-anchor:end;" transform="matrix(1 0 0 1 3036 1969)">Generated from oppobuds.transparency.fill</text>
  <text style="stroke:none;fill:black;font-family:sans-serif;font-size:13;text-anchor:end;" transform="matrix(1 0 0 1 3036 1987)">Typeset at 100.0 points</text>
  <text style="stroke:none;fill:black;font-family:sans-serif;font-size:13;" transform="matrix(1 0 0 1 263 726)">Small</text>
  <text style="stroke:none;fill:black;font-family:sans-serif;font-size:13;" transform="matrix(1 0 0 1 263 1156)">Medium</text>
  <text style="stroke:none;fill:black;font-family:sans-serif;font-size:13;" transform="matrix(1 0 0 1 263 1586)">Large</text>
 </g>
 <g id="Guides">
  <g id="H-reference" style="fill:#27AAE1;stroke:none;" transform="matrix(1 0 0 1 339 696)">
   <path d="M0.993654 0L3.63775 0L29.3281-67.1323L30.0303-67.1323L30.0303-70.459L28.1226-70.459ZM11.6885-24.4799L46.9815-24.4799L46.2315-26.7285L12.4385-26.7285ZM55.1196 0L57.7637 0L30.6382-70.459L29.4326-70.459L29.4326-67.1323Z"/>
  </g>
  <line id="Baseline-S" style="fill:none;stroke:#27AAE1;opacity:1;stroke-width:0.5;" x1="263" x2="3036" y1="696" y2="696"/>
  <line id="Capline-S" style="fill:none;stroke:#27AAE1;opacity:1;stroke-width:0.5;" x1="263" x2="3036" y1="625.541" y2="625.541"/>
  <g id="H-reference" style="fill:#27AAE1;stroke:none;" transform="matrix(1 0 0 1 339 1126)">
   <path d="M0.993654 0L3.63775 0L29.3281-67.1323L30.0303-67.1323L30.0303-70.459L28.1226-70.459ZM11.6885-24.4799L46.9815-24.4799L46.2315-26.7285L12.4385-26.7285ZM55.1196 0L57.7637 0L30.6382-70.459L29.4326-70.459L29.4326-67.1323Z"/>
  </g>
  <line id="Baseline-M" style="fill:none;stroke:#27AAE1;opacity:1;stroke-width:0.5;" x1="263" x2="3036" y1="1126" y2="1126"/>
  <line id="Capline-M" style="fill:none;stroke:#27AAE1;opacity:1;stroke-width:0.5;" x1="263" x2="3036" y1="1055.54" y2="1055.54"/>
  <g id="H-reference" style="fill:#27AAE1;stroke:none;" transform="matrix(1 0 0 1 339 1556)">
   <path d="M0.993654 0L3.63775 0L29.3281-67.1323L30.0303-67.1323L30.0303-70.459L28.1226-70.459ZM11.6885-24.4799L46.9815-24.4799L46.2315-26.7285L12.4385-26.7285ZM55.1196 0L57.7637 0L30.6382-70.459L29.4326-70.459L29.4326-67.1323Z"/>
  </g>
  <line id="Baseline-L" style="fill:none;stroke:#27AAE1;opacity:1;stroke-width:0.5;" x1="263" x2="3036" y1="1556" y2="1556"/>
  <line id="Capline-L" style="fill:none;stroke:#27AAE1;opacity:1;stroke-width:0.5;" x1="263" x2="3036" y1="1485.54" y2="1485.54"/>
  <line id="right-margin-Black-S" style="fill:none;stroke:#00AEEF;stroke-width:0.5;opacity:1.0;" x1="2976.1" x2="2976.1" y1="600.785" y2="720.121"/>
  <line id="left-margin-Black-S" style="fill:none;stroke:#FF3B30;stroke-width:0.5;opacity:1.0;" x1="2890.7" x2="2890.7" y1="600.785" y2="720.121"/>
  <line id="right-margin-Regular-S" style="fill:none;stroke:#00AEEF;stroke-width:0.5;opacity:1.0;" x1="1491.89" x2="1491.89" y1="600.785" y2="720.121"/>
  <line id="left-margin-Regular-S" style="fill:none;stroke:#00AEEF;stroke-width:0.5;opacity:1.0;" x1="1407.79" x2="1407.79" y1="600.785" y2="720.121"/>
  <line id="right-margin-Ultralight-S" style="fill:none;stroke:#FF3B30;stroke-width:0.5;opacity:1.0;" x1="601.21" x2="601.21" y1="600.785" y2="720.121"/>
  <line id="left-margin-Ultralight-S" style="fill:none;stroke:#00AEEF;stroke-width:0.5;opacity:1.0;" x1="518.212" x2="518.212" y1="600.785" y2="720.121"/>
 </g>
 <g id="Symbols">
  <g id="Black-S" transform="matrix(1 0 0 1 2890.7 696)">
   <path class="monochrome-0 multicolor-0:tintColor hierarchical-0:primary SFSymbolsPreviewWireframe" d="M-2352.19-0.903L-2309.69-0.903C-2306.09-0.903-2303.99-2.503-2303.99-5.303C-2303.99-13.603-2314.29-25.003-2330.99-25.003C-2347.69-25.003-2357.89-13.603-2357.89-5.303C-2357.89-2.269-2355.79-0.903-2352.19-0.903L-2352.19-0.903ZM-2330.99-30.604C-2324.19-30.604-2318.09-36.704-2318.09-44.804C-2318.09-52.904-2324.09-58.604-2330.99-58.604C-2337.89-58.604-2343.79-52.704-2343.79-44.804C-2343.79-36.904-2337.79-30.604-2330.99-30.604L-2330.99-30.604Z"/>
   <path class="monochrome-1 multicolor-1:tintColor hierarchical-1:secondary SFSymbolsPreviewWireframe" d="M-2330.93-70.497C-2332.54-70.497-2333.84-69.193-2333.84-67.584C-2333.84-65.975-2332.54-64.671-2330.93-64.671C-2329.32-64.671-2328.02-65.975-2328.02-67.584C-2328.02-69.193-2329.32-70.497-2330.93-70.497Z"/>
   <path class="monochrome-2 multicolor-2:tintColor hierarchical-2:secondary SFSymbolsPreviewWireframe" d="M-2341.33-67.76C-2342.94-67.76-2344.24-66.456-2344.24-64.847C-2344.24-63.238-2342.94-61.934-2341.33-61.934C-2339.72-61.934-2338.41-63.238-2338.41-64.847C-2338.41-66.456-2339.72-67.76-2341.33-67.76Z"/>
   <path class="monochrome-3 multicolor-3:tintColor hierarchical-3:secondary SFSymbolsPreviewWireframe" d="M-2323.44-64.859C-2323.44-63.25-2322.14-61.946-2320.53-61.946C-2318.92-61.946-2317.62-63.25-2317.62-64.859C-2317.62-66.468-2318.92-67.772-2320.53-67.772C-2322.14-67.772-2323.44-66.468-2323.44-64.859Z"/>
   <path class="monochrome-4 multicolor-4:tintColor hierarchical-4:secondary SFSymbolsPreviewWireframe" d="M-2348.55-60.878C-2350.16-60.878-2351.46-59.574-2351.46-57.965C-2351.46-56.356-2350.16-55.052-2348.55-55.052C-2346.94-55.052-2345.64-56.356-2345.64-57.965C-2345.64-59.574-2346.94-60.878-2348.55-60.878Z"/>
   <path class="monochrome-5 multicolor-5:tintColor hierarchical-5:secondary SFSymbolsPreviewWireframe" d="M-2316.22-57.977C-2316.22-56.368-2314.92-55.064-2313.31-55.064C-2311.7-55.064-2310.39-56.368-2310.39-57.977C-2310.39-59.586-2311.7-60.89-2313.31-60.89C-2314.92-60.89-2316.22-59.586-2316.22-57.977Z"/>
   <path class="monochrome-6 multicolor-6:tintColor hierarchical-6:secondary SFSymbolsPreviewWireframe" d="M-2352.13-51.783C-2353.74-51.783-2355.05-50.479-2355.05-48.87C-2355.05-47.261-2353.74-45.957-2352.13-45.957C-2350.52-45.957-2349.22-47.261-2349.22-48.87C-2349.22-50.479-2350.52-51.783-2352.13-51.783Z"/>
   <path class="monochrome-7 multicolor-7:tintColor hierarchical-7:secondary SFSymbolsPreviewWireframe" d="M-2312.64-48.882C-2312.64-47.273-2311.33-45.969-2309.72-45.969C-2308.11-45.969-2306.81-47.273-2306.81-48.882C-2306.81-50.491-2308.11-51.795-2309.72-51.795C-2311.33-51.795-2312.64-50.491-2312.64-48.882Z"/>
   <path class="monochrome-8 multicolor-8:tintColor hierarchical-8:secondary SFSymbolsPreviewWireframe" d="M-2351.66-42.119C-2353.27-42.119-2354.57-40.815-2354.57-39.206C-2354.57-37.597-2353.27-36.293-2351.66-36.293C-2350.05-36.293-2348.75-37.597-2348.75-39.206C-2348.75-40.815-2350.05-42.119-2351.66-42.119Z"/>
   <path class="monochrome-9 multicolor-9:tintColor hierarchical-9:secondary SFSymbolsPreviewWireframe" d="M-2313.11-39.218C-2313.11-37.609-2311.81-36.305-2310.2-36.305C-2308.59-36.305-2307.29-37.609-2307.29-39.218C-2307.29-40.827-2308.59-42.131-2310.2-42.131C-2311.81-42.131-2313.11-40.827-2313.11-39.218Z"/>
   <path class="monochrome-10 multicolor-10:tintColor hierarchical-10:secondary SFSymbolsPreviewWireframe" d="M-2344.72-30.604C-2344.72-28.995-2346.03-27.691-2347.63-27.691C-2349.24-27.691-2350.55-28.995-2350.55-30.604C-2350.55-32.213-2349.24-33.517-2347.63-33.517C-2346.03-33.517-2344.72-32.213-2344.72-30.604Z"/>
   <path class="monochrome-11 multicolor-11:tintColor hierarchical-11:secondary SFSymbolsPreviewWireframe" d="M-2314.22-33.529C-2312.61-33.529-2311.31-32.225-2311.31-30.616C-2311.31-29.007-2312.61-27.703-2314.22-27.703C-2315.83-27.703-2317.13-29.007-2317.13-30.616C-2317.13-32.225-2315.83-33.529-2314.22-33.529Z"/>
  </g>
  <g id="Regular-S" transform="matrix(1 0 0 1 1407.79 696)">
   <path class="monochrome-0 multicolor-0:tintColor hierarchical-0:primary SFSymbolsPreviewWireframe" d="M20.741-0.903L63.24-0.903C66.84-0.903 68.94-2.503 68.94-5.303C68.94-13.603 58.64-25.003 41.94-25.003C25.24-25.003 15.04-13.603 15.04-5.303C15.04-2.269 17.14-0.903 20.74-0.903L20.741-0.903ZM41.941-30.604C48.741-30.604 54.841-36.704 54.841-44.804C54.841-52.904 48.841-58.604 41.941-58.604C35.041-58.604 29.141-52.704 29.141-44.804C29.141-36.904 35.141-30.604 41.941-30.604L41.941-30.604Z"/>
   <path class="monochrome-1 multicolor-1:tintColor hierarchical-1:secondary SFSymbolsPreviewWireframe" d="M42.001-70.497C40.392-70.497 39.088-69.193 39.088-67.584C39.088-65.975 40.392-64.671 42.001-64.671C43.61-64.671 44.914-65.975 44.914-67.584C44.914-69.193 43.61-70.497 42.001-70.497Z"/>
   <path class="monochrome-2 multicolor-2:tintColor hierarchical-2:secondary SFSymbolsPreviewWireframe" d="M31.603-67.76C29.994-67.76 28.69-66.456 28.69-64.847C28.69-63.238 29.994-61.934 31.603-61.934C33.212-61.934 34.516-63.238 34.516-64.847C34.516-66.456 33.212-67.76 31.603-67.76Z"/>
   <path class="monochrome-3 multicolor-3:tintColor hierarchical-3:secondary SFSymbolsPreviewWireframe" d="M49.486-64.859C49.486-63.25 50.79-61.946 52.399-61.946C54.008-61.946 55.312-63.25 55.312-64.859C55.312-66.468 54.008-67.772 52.399-67.772C50.79-67.772 49.486-66.468 49.486-64.859Z"/>
   <path class="monochrome-4 multicolor-4:tintColor hierarchical-4:secondary SFSymbolsPreviewWireframe" d="M24.38-60.878C22.771-60.878 21.467-59.574 21.467-57.965C21.467-56.356 22.771-55.052 24.38-55.052C25.989-55.052 27.293-56.356 27.293-57.965C27.293-59.574 25.989-60.878 24.38-60.878Z"/>
   <path class="monochrome-5 multicolor-5:tintColor hierarchical-5:secondary SFSymbolsPreviewWireframe" d="M56.709-57.977C56.709-56.368 58.013-55.064 59.622-55.064C61.231-55.064 62.535-56.368 62.535-57.977C62.535-59.586 61.231-60.89 59.622-60.89C58.013-60.89 56.709-59.586 56.709-57.977Z"/>
   <path class="monochrome-6 multicolor-6:tintColor hierarchical-6:secondary SFSymbolsPreviewWireframe" d="M20.796-51.783C19.187-51.783 17.883-50.479 17.883-48.87C17.883-47.261 19.187-45.957 20.796-45.957C22.405-45.957 23.709-47.261 23.709-48.87C23.709-50.479 22.405-51.783 20.796-51.783Z"/>
   <path class="monochrome-7 multicolor-7:tintColor hierarchical-7:secondary SFSymbolsPreviewWireframe" d="M60.293-48.882C60.293-47.273 61.597-45.969 63.206-45.969C64.815-45.969 66.119-47.273 66.119-48.882C66.119-50.491 64.815-51.795 63.206-51.795C61.597-51.795 60.293-50.491 60.293-48.882Z"/>
   <path class="monochrome-8 multicolor-8:tintColor hierarchical-8:secondary SFSymbolsPreviewWireframe" d="M21.271-42.119C19.662-42.119 18.358-40.815 18.358-39.206C18.358-37.597 19.662-36.293 21.271-36.293C22.88-36.293 24.184-37.597 24.184-39.206C24.184-40.815 22.88-42.119 21.271-42.119Z"/>
   <path class="monochrome-9 multicolor-9:tintColor hierarchical-9:secondary SFSymbolsPreviewWireframe" d="M59.818-39.218C59.818-37.609 61.122-36.305 62.731-36.305C64.34-36.305 65.644-37.609 65.644-39.218C65.644-40.827 64.34-42.131 62.731-42.131C61.122-42.131 59.818-40.827 59.818-39.218Z"/>
   <path class="monochrome-10 multicolor-10:tintColor hierarchical-10:secondary SFSymbolsPreviewWireframe" d="M28.208-30.604C28.208-28.995 26.904-27.691 25.295-27.691C23.686-27.691 22.382-28.995 22.382-30.604C22.382-32.213 23.686-33.517 25.295-33.517C26.904-33.517 28.208-32.213 28.208-30.604Z"/>
   <path class="monochrome-11 multicolor-11:tintColor hierarchical-11:secondary SFSymbolsPreviewWireframe" d="M58.708-33.529C60.317-33.529 61.621-32.225 61.621-30.616C61.621-29.007 60.317-27.703 58.708-27.703C57.099-27.703 55.795-29.007 55.795-30.616C55.795-32.225 57.099-33.529 58.708-33.529Z"/>
  </g>
  <g id="Ultralight-S" transform="matrix(1 0 0 1 518.212 696)">
   <path class="monochrome-0 multicolor-0:tintColor hierarchical-0:primary SFSymbolsPreviewWireframe" d="M2393.97-0.903L2436.46-0.903C2440.06-0.903 2442.16-2.503 2442.16-5.303C2442.16-13.603 2431.86-25.003 2415.16-25.003C2398.46-25.003 2388.26-13.603 2388.26-5.303C2388.26-2.269 2390.36-0.903 2393.96-0.903L2393.96-0.903ZM2415.17-30.604C2421.97-30.604 2428.07-36.704 2428.07-44.804C2428.07-52.904 2422.07-58.604 2415.17-58.604C2408.27-58.604 2402.37-52.704 2402.37-44.804C2402.37-36.904 2408.37-30.604 2415.17-30.604L2415.17-30.604Z"/>
   <path class="monochrome-1 multicolor-1:tintColor hierarchical-1:secondary SFSymbolsPreviewWireframe" d="M2415.23-70.497C2413.62-70.497 2412.31-69.193 2412.31-67.584C2412.31-65.975 2413.62-64.671 2415.23-64.671C2416.84-64.671 2418.14-65.975 2418.14-67.584C2418.14-69.193 2416.84-70.497 2415.23-70.497Z"/>
   <path class="monochrome-2 multicolor-2:tintColor hierarchical-2:secondary SFSymbolsPreviewWireframe" d="M2404.83-67.76C2403.22-67.76 2401.91-66.456 2401.91-64.847C2401.91-63.238 2403.22-61.934 2404.83-61.934C2406.44-61.934 2407.74-63.238 2407.74-64.847C2407.74-66.456 2406.44-67.76 2404.83-67.76Z"/>
   <path class="monochrome-3 multicolor-3:tintColor hierarchical-3:secondary SFSymbolsPreviewWireframe" d="M2422.71-64.859C2422.71-63.25 2424.01-61.946 2425.62-61.946C2427.23-61.946 2428.54-63.25 2428.54-64.859C2428.54-66.468 2427.23-67.772 2425.62-67.772C2424.01-67.772 2422.71-66.468 2422.71-64.859Z"/>
   <path class="monochrome-4 multicolor-4:tintColor hierarchical-4:secondary SFSymbolsPreviewWireframe" d="M2397.61-60.878C2396-60.878 2394.69-59.574 2394.69-57.965C2394.69-56.356 2396-55.052 2397.61-55.052C2399.21-55.052 2400.52-56.356 2400.52-57.965C2400.52-59.574 2399.21-60.878 2397.61-60.878Z"/>
   <path class="monochrome-5 multicolor-5:tintColor hierarchical-5:secondary SFSymbolsPreviewWireframe" d="M2429.93-57.977C2429.93-56.368 2431.24-55.064 2432.85-55.064C2434.46-55.064 2435.76-56.368 2435.76-57.977C2435.76-59.586 2434.46-60.89 2432.85-60.89C2431.24-60.89 2429.93-59.586 2429.93-57.977Z"/>
   <path class="monochrome-6 multicolor-6:tintColor hierarchical-6:secondary SFSymbolsPreviewWireframe" d="M2394.02-51.783C2392.41-51.783 2391.11-50.479 2391.11-48.87C2391.11-47.261 2392.41-45.957 2394.02-45.957C2395.63-45.957 2396.93-47.261 2396.93-48.87C2396.93-50.479 2395.63-51.783 2394.02-51.783Z"/>
   <path class="monochrome-7 multicolor-7:tintColor hierarchical-7:secondary SFSymbolsPreviewWireframe" d="M2433.52-48.882C2433.52-47.273 2434.82-45.969 2436.43-45.969C2438.04-45.969 2439.34-47.273 2439.34-48.882C2439.34-50.491 2438.04-51.795 2436.43-51.795C2434.82-51.795 2433.52-50.491 2433.52-48.882Z"/>
   <path class="monochrome-8 multicolor-8:tintColor hierarchical-8:secondary SFSymbolsPreviewWireframe" d="M2394.5-42.119C2392.89-42.119 2391.58-40.815 2391.58-39.206C2391.58-37.597 2392.89-36.293 2394.5-36.293C2396.11-36.293 2397.41-37.597 2397.41-39.206C2397.41-40.815 2396.11-42.119 2394.5-42.119Z"/>
   <path class="monochrome-9 multicolor-9:tintColor hierarchical-9:secondary SFSymbolsPreviewWireframe" d="M2433.04-39.218C2433.04-37.609 2434.35-36.305 2435.96-36.305C2437.57-36.305 2438.87-37.609 2438.87-39.218C2438.87-40.827 2437.57-42.131 2435.96-42.131C2434.35-42.131 2433.04-40.827 2433.04-39.218Z"/>
   <path class="monochrome-10 multicolor-10:tintColor hierarchical-10:secondary SFSymbolsPreviewWireframe" d="M2401.43-30.604C2401.43-28.995 2400.13-27.691 2398.52-27.691C2396.91-27.691 2395.61-28.995 2395.61-30.604C2395.61-32.213 2396.91-33.517 2398.52-33.517C2400.13-33.517 2401.43-32.213 2401.43-30.604Z"/>
   <path class="monochrome-11 multicolor-11:tintColor hierarchical-11:secondary SFSymbolsPreviewWireframe" d="M2431.93-33.529C2433.54-33.529 2434.85-32.225 2434.85-30.616C2434.85-29.007 2433.54-27.703 2431.93-27.703C2430.32-27.703 2429.02-29.007 2429.02-30.616C2429.02-32.225 2430.32-33.529 2431.93-33.529Z"/>
  </g>
 </g>
</svg>
